<svg xmlns="http://www.w3.org/2000/svg" viewBox="0 0 100 100" width="100" height="100" xmlns:xlink="http://www.w3.org/1999/xlink">
  <defs>
    <linearGradient id="lamelle" x1="0%" x2="0%" y1="0%" y2="100%">
      <stop offset="0%" stop-color="#aaaaaa" />
      <stop offset="100%" stop-color="#cccccc" />
    </linearGradient>
  </defs>

  <rect fill="url(#lamelle)" height="12" width="100" y="0"/>
  <rect fill="url(#lamelle)" height="12" width="100" y="12"/>
  <rect fill="url(#lamelle)" height="12" width="100" y="24"/>
  <rect fill="url(#lamelle)" height="12" width="100" y="36"/>
  <rect fill="url(#lamelle)" height="12" width="100" y="48"/>
  <rect fill="url(#lamelle)" height="12" width="100" y="60"/>
  <rect fill="url(#lamelle)" height="12" width="100" y="72"/>
  <rect fill="url(#lamelle)" height="12" width="100" y="84"/>
  <rect fill="url(#lamelle)" height="12" width="100" y="96"/>

  <!--<rect fill="#ffffff" height="2" width="6" x="3" y="11" rx="2" ry="2"/>
  <rect fill="#ffffff" height="2" width="6" x="12" y="11" rx="2" ry="2"/>
  <rect fill="#ffffff" height="2" width="6" x="21" y="11" rx="2" ry="2"/>
  <rect fill="#ffffff" height="2" width="6" x="30" y="11" rx="2" ry="2"/>
  <rect fill="#ffffff" height="2" width="6" x="39" y="11" rx="2" ry="2"/>
  <rect fill="#ffffff" height="2" width="6" x="48" y="11" rx="2" ry="2"/>
  <rect fill="#ffffff" height="2" width="6" x="57" y="11" rx="2" ry="2"/>
  <rect fill="#ffffff" height="2" width="6" x="66" y="11" rx="2" ry="2"/>
  <rect fill="#ffffff" height="2" width="6" x="75" y="11" rx="2" ry="2"/>
  <rect fill="#ffffff" height="2" width="6" x="84" y="11" rx="2" ry="2"/>
  <rect fill="#ffffff" height="2" width="6" x="93" y="11" rx="2" ry="2"/>

  <rect fill="#ffffff" height="2" width="6" x="3" y="23" rx="2" ry="2"/>
  <rect fill="#ffffff" height="2" width="6" x="12" y="23" rx="2" ry="2"/>
  <rect fill="#ffffff" height="2" width="6" x="21" y="23" rx="2" ry="2"/>
  <rect fill="#ffffff" height="2" width="6" x="30" y="23" rx="2" ry="2"/>
  <rect fill="#ffffff" height="2" width="6" x="39" y="23" rx="2" ry="2"/>
  <rect fill="#ffffff" height="2" width="6" x="48" y="23" rx="2" ry="2"/>
  <rect fill="#ffffff" height="2" width="6" x="57" y="23" rx="2" ry="2"/>
  <rect fill="#ffffff" height="2" width="6" x="66" y="23" rx="2" ry="2"/>
  <rect fill="#ffffff" height="2" width="6" x="75" y="23" rx="2" ry="2"/>
  <rect fill="#ffffff" height="2" width="6" x="84" y="23" rx="2" ry="2"/>
  <rect fill="#ffffff" height="2" width="6" x="93" y="23" rx="2" ry="2"/>-->

</svg>